<svg xmlns="http://www.w3.org/2000/svg" width="512" height="512" viewBox="0 0 512 512"><g class="nc-icon-wrapper" fill="#ff667d"><path d="M493.235 222.059l-45.588-45.588V112c0-26.51-21.49-48-48-48h-64.47l-45.588-45.588c-18.746-18.746-49.137-18.746-67.883 0L176.118 64h-64.471c-26.509 0-48 21.49-48 48v64.471L18.06 222.059c-18.747 18.744-18.747 49.136 0 67.882l45.587 45.588V400c0 26.51 21.491 48 48 48h64.471l45.588 45.588c18.746 18.744 49.137 18.744 67.883 0L335.177 448h64.47c26.51 0 48-21.49 48-48v-64.471l45.588-45.588c18.746-18.746 18.746-49.138 0-67.882zM247.647 400c-18 0-32-14-32-32s14-32 32-32 32 14 32 32-14 32-32 32zm70-142l-46 28v2c0 13-11 24-24 24s-24-11-24-24v-16c0-8 4-16 12-21l57-34c7-4 11-11 11-19 0-12-10-22-22-22h-52c-12 0-22 10-22 22 0 13-11 24-24 24s-24-11-24-24c0-39 31-70 70-70h52c39 0 70 31 70 70 0 24-13 47-34 60z"></path></g></svg>